<svg id="icons" enable-background="new 0 0 64 64" height="512" viewBox="0 0 64 64" width="512" xmlns="http://www.w3.org/2000/svg"><g><g><path d="m37.015 16.001v4h-.01c0 2.76-2.23 5-5 5-2.76 0-5-2.24-5-5v-4z" fill="#a0d468"/></g><g><path d="m47.005 1.001c1.65 0 3 1.34 3 3 0 5.53-4.48 10-10 10h-.99c-1.109 0-2 .89-2 2h-10.01c0-1.11-.89-2-2-2h-1c-5.52 0-10-4.47-10-10 0-1.66 1.35-3 3-3 0 1.66 1.35 3 3 3 1.66 0 3-1.34 3-3 0 1.66 1.35 3 3 3 1.66 0 3-1.34 3-3 0 1.66 1.35 3 3 3 1.66 0 3-1.34 3-3 0 1.66 1.35 3 3 3 1.66 0 3-1.34 3-3 0 1.66 1.35 3 3 3 1.66 0 3-1.34 3-3z" fill="#5d9cec"/></g></g><g><g><path d="m24.004 15c-6.065 0-11-4.935-11-11 0-.553.447-1 1-1s1 .447 1 1c0 4.963 4.037 9 9 9 .553 0 1 .447 1 1s-.447 1-1 1z"/></g><g><path d="m14.004 5c-.553 0-1-.447-1-1 0-2.206 1.794-4 4-4 .553 0 1 .447 1 1s-.447 1-1 1c-1.103 0-2 .897-2 2 0 .553-.447 1-1 1z"/></g><g><path d="m39.996 15c-.553 0-1-.447-1-1s.447-1 1-1c4.963 0 9-4.037 9-9 0-.553.447-1 1-1s1 .447 1 1c0 6.065-4.934 11-11 11z"/></g><g><path d="m49.996 5c-.553 0-1-.447-1-1 0-1.103-.897-2-2-2-.553 0-1-.447-1-1s.447-1 1-1c2.206 0 4 1.794 4 4 0 .553-.447 1-1 1z"/></g><g><path d="m20.004 5c-2.206 0-4-1.794-4-4 0-.553.447-1 1-1s1 .447 1 1c0 1.103.897 2 2 2 .553 0 1 .447 1 1s-.447 1-1 1z"/></g><g><path d="m20.004 5c-.553 0-1-.447-1-1s.447-1 1-1c1.103 0 2-.897 2-2 0-.553.447-1 1-1s1 .447 1 1c0 2.206-1.794 4-4 4z"/></g><g><path d="m26.004 5c-2.206 0-4-1.794-4-4 0-.553.447-1 1-1s1 .447 1 1c0 1.103.897 2 2 2 .553 0 1 .447 1 1s-.447 1-1 1z"/></g><g><path d="m26.004 5c-.553 0-1-.447-1-1s.447-1 1-1c1.103 0 2-.897 2-2 0-.553.447-1 1-1s1 .447 1 1c0 2.206-1.794 4-4 4z"/></g><g><path d="m32.004 5c-2.206 0-4-1.794-4-4 0-.553.447-1 1-1s1 .447 1 1c0 1.103.897 2 2 2 .553 0 1 .447 1 1s-.447 1-1 1z"/></g><g><path d="m32.004 5c-.553 0-1-.447-1-1s.447-1 1-1c1.103 0 2-.897 2-2 0-.553.447-1 1-1s1 .447 1 1c0 2.206-1.794 4-4 4z"/></g><g><path d="m38.004 5c-2.206 0-4-1.794-4-4 0-.553.447-1 1-1s1 .447 1 1c0 1.103.897 2 2 2 .553 0 1 .447 1 1s-.447 1-1 1z"/></g><g><path d="m38.004 5c-.553 0-1-.447-1-1s.447-1 1-1c1.103 0 2-.897 2-2 0-.553.447-1 1-1s1 .447 1 1c0 2.206-1.794 4-4 4z"/></g><g><path d="m44.004 5c-2.206 0-4-1.794-4-4 0-.553.447-1 1-1s1 .447 1 1c0 1.103.897 2 2 2 .553 0 1 .447 1 1s-.447 1-1 1z"/></g><g><path d="m44.004 5c-.553 0-1-.447-1-1s.447-1 1-1c1.103 0 2-.897 2-2 0-.553.447-1 1-1s1 .447 1 1c0 2.206-1.794 4-4 4z"/></g><g><path d="m25.002 15h-.998c-.553 0-1-.447-1-1s.447-1 1-1h.998c.553 0 1 .447 1 1s-.447 1-1 1z"/></g><g><path d="m39.996 15h-.99c-.553 0-1-.447-1-1s.447-1 1-1h.99c.553 0 1 .447 1 1s-.447 1-1 1z"/></g><g><path d="m27.002 17c-.553 0-1-.447-1-1 0-.552-.448-1-1-1-.553 0-1-.447-1-1s.447-1 1-1c1.654 0 3 1.346 3 3 0 .553-.447 1-1 1z"/></g><g><path d="m37.008 17c-.553 0-1-.447-1-1 0-1.654 1.346-3 3-3 .553 0 1 .447 1 1s-.447 1-1 1c-.552 0-1 .448-1 1 0 .553-.447 1-1 1z"/></g><g><path d="m32.004 26.002c-3.31 0-6.002-2.691-6.002-6 0-.553.447-1 1-1s1 .447 1 1c0 2.206 1.795 4 4.002 4 2.206 0 4-1.794 4-4 0-.553.447-1 1-1s1 .447 1 1c0 3.309-2.691 6-6 6z"/></g><g><path d="m37.008 17h-10.006c-.553 0-1-.447-1-1s.447-1 1-1h10.006c.553 0 1 .447 1 1s-.447 1-1 1z"/></g><g><path d="m37.008 21.002c-.553 0-1-.447-1-1v-4.002c0-.553.447-1 1-1s1 .447 1 1v4.002c0 .553-.447 1-1 1z"/></g><g><path d="m27.002 21.002c-.553 0-1-.447-1-1v-4.002c0-.553.447-1 1-1s1 .447 1 1v4.002c0 .553-.447 1-1 1z"/></g><g><path d="m32.004 64c-.553 0-1-.447-1-1v-37.998c0-.553.447-1 1-1s1 .447 1 1v37.998c0 .553-.447 1-1 1z"/></g><g><path d="m32.004 58.008c-.553 0-1-.447-1-1 0-8.271 6.729-15 15-15 .553 0 1 .447 1 1s-.447 1-1 1c-7.168 0-13 5.832-13 13 0 .553-.447 1-1 1z"/></g><g><path d="m32.004 46.998c-.553 0-1-.447-1-1 0-7.168-5.832-13-13-13-.553 0-1-.447-1-1s.447-1 1-1c8.271 0 15 6.729 15 15 0 .553-.447 1-1 1z"/></g></g></svg>