<svg id="icons" enable-background="new 0 0 64 64" height="512" viewBox="0 0 64 64" width="512" xmlns="http://www.w3.org/2000/svg"><g><g><path d="m31.63 17.01c.54.02 1.05.18 1.48.459.439.281.81.67 1.05 1.141.22.41.34.89.34 1.39 0 .039 0 .09-.01.129-.021.541-.181 1.051-.46 1.48-.28.439-.67.811-1.141 1.051-.409.219-.889.34-1.389.34-.04 0-.09 0-.13-.01-.54-.021-1.05-.191-1.48-.461-.439-.279-.81-.67-1.05-1.141-.22-.408-.34-.888-.34-1.388 0-.041 0-.09.01-.131.021-.539.19-1.049.46-1.48.28-.439.67-.809 1.141-1.049.409-.221.889-.34 1.389-.34.04 0 .09 0 .13.01z" fill="#ffce54"/></g><g><g><path d="m36.81 14.689c-1.5.971-2.77 1.93-3.699 2.77v.01c-.431-.279-.94-.439-1.48-.459v-.01c.38-1.201 1-2.67 1.811-4.26.329-.641.689-1.301 1.079-1.971 2.619-4.539 5.519-7.779 6.479-7.23.96.561-.39 4.691-3.02 9.23-.38.67-.77 1.311-1.17 1.92z" fill="#fc6e51"/></g><g><path d="m28.5 20c0 .5.12.98.34 1.389-1.229.271-2.82.471-4.6.551 0 0-.01 0-.01.01-.72.03-1.46.05-2.23.05-5.25 0-9.5-.891-9.5-2 0-1.1 4.25-2 9.5-2 .77 0 1.52.02 2.24.059l.01-.01c1.58.82 3.05 1.441 4.25 1.82h.01c-.01.041-.01.09-.01.131z" fill="#fc6e51"/></g><g><path d="m33.44 27.26c-.091-1.779-.29-3.371-.551-4.6.471-.24.86-.611 1.141-1.051.85.93 1.81 2.199 2.779 3.699.391.602.78 1.25 1.171 1.922 2.62 4.54 3.98 8.67 3.02 9.229-.96.551-3.86-2.689-6.48-7.229-.39-.672-.75-1.33-1.069-1.971h-.011z" fill="#fc6e51"/></g><g><path d="m31.37 23c-.38 1.199-1.01 2.67-1.82 4.26-.33.641-.68 1.299-1.069 1.971-2.621 4.539-5.521 7.779-6.481 7.228-.96-.559.39-4.689 3.02-9.229.381-.672.78-1.301 1.171-1.91v-.012c1.5-.969 2.77-1.93 3.699-2.779.431.27.94.439 1.48.461z" fill="#fc6e51"/></g><g><path d="m34.5 20.129h-.01c.01-.039.01-.09.01-.129 0-.5-.12-.98-.34-1.391 1.229-.27 2.82-.471 4.6-.551 0 0 .01 0 .01-.01.72-.028 1.46-.048 2.23-.048 5.25 0 9.5.9 9.5 2 0 1.109-4.25 2-9.5 2-.77 0-1.52-.02-2.24-.051-1.59-.81-3.06-1.439-4.26-1.82z" fill="#fc6e51"/></g><g><path d="m29.55 12.74c.09 1.789.29 3.369.561 4.6-.471.24-.86.609-1.141 1.049-.85-.93-1.81-2.199-2.779-3.699h-.011c-.38-.6-.77-1.25-1.16-1.92-2.63-4.54-3.98-8.67-3.02-9.221.96-.559 3.86 2.682 6.48 7.221.39.669.75 1.33 1.07 1.97z" fill="#fc6e51"/></g></g><g><g><path d="m26.19 14.689c.97 1.5 1.93 2.77 2.779 3.699-.27.432-.439.941-.46 1.48h-.009c-1.2-.379-2.67-1-4.25-1.82-.64-.318-1.31-.68-1.98-1.068-4.539-2.621-7.779-5.521-7.229-6.48.56-.961 4.69.389 9.229 3.02.671.381 1.301.779 1.91 1.17h.01z" fill="#e9573f"/></g><g><path d="m33.11 17.459c.93-.84 2.199-1.799 3.699-2.77.601-.391 1.25-.779 1.921-1.17 4.539-2.631 8.67-3.98 9.22-3.02.56.959-2.681 3.859-7.22 6.48-.671.389-1.32.75-1.961 1.068 0 .01-.01.01-.01.01-1.779.08-3.37.281-4.6.551-.24-.471-.61-.859-1.05-1.141v-.008z" fill="#e9573f"/></g><g><path d="m40.73 23.02c4.539 2.619 7.779 5.52 7.22 6.48-.55.959-4.681-.391-9.22-3.02-.671-.381-1.311-.771-1.921-1.172-.97-1.5-1.93-2.77-2.779-3.699.279-.43.439-.939.46-1.48h.01c1.2.381 2.67 1.01 4.26 1.82.64.33 1.3.68 1.97 1.071z" fill="#e9573f"/></g><g><path d="m29.89 22.529c-.93.85-2.199 1.811-3.699 2.779v.012c-.601.379-1.25.77-1.921 1.16-4.539 2.629-8.67 3.979-9.22 3.02-.56-.961 2.681-3.861 7.22-6.48.671-.391 1.32-.75 1.961-1.07 0-.01.01-.01.01-.01 1.779-.08 3.37-.279 4.6-.551.239.47.609.861 1.049 1.14z" fill="#e9573f"/></g><g><path d="m33.44 12.74c-.81 1.59-1.43 3.059-1.81 4.26v.01c-.04-.01-.09-.01-.13-.01-.5 0-.98.119-1.39.34-.271-1.23-.471-2.811-.561-4.6-.03-.711-.05-1.471-.05-2.24 0-5.25.89-9.5 2-9.5 1.1 0 2 4.25 2 9.5.001.77-.019 1.529-.059 2.24z" fill="#e9573f"/></g><g><path d="m32.89 22.66c.261 1.229.46 2.82.551 4.6.04.721.06 1.471.06 2.24 0 5.25-.9 9.5-2 9.5-1.11 0-2-4.25-2-9.5 0-.77.02-1.531.05-2.24.811-1.59 1.44-3.061 1.82-4.26v-.01c.039.01.089.01.129.01.5 0 .98-.121 1.39-.34z" fill="#e9573f"/></g></g><g><path d="m51.5 41.059c0 11.061-8.95 20-20 20 0-11.049 8.94-20 20-20z" fill="#a0d468"/></g></g><g><g><path d="m31.5 24c-2.206 0-4-1.794-4-4s1.794-4 4-4 4 1.794 4 4-1.794 4-4 4zm0-6c-1.103 0-2 .897-2 2s.897 2 2 2 2-.897 2-2-.897-2-2-2z"/></g><g><path d="m31.499 40c-2.783 0-3-8.037-3-10.5 0-.791.02-1.56.057-2.294.027-.553.491-.988 1.049-.949.552.028.977.498.949 1.049-.035.703-.055 1.438-.055 2.194 0 4.154.556 6.924 1 8.058.444-1.134 1-3.903 1-8.058 0-2.494-.214-4.909-.588-6.625-.117-.54.226-1.072.765-1.19.545-.117 1.072.225 1.19.765.408 1.878.633 4.382.633 7.051 0 2.462-.217 10.499-3 10.499z"/></g><g><path d="m30.109 18.338c-.46 0-.874-.319-.976-.787-.409-1.875-.635-4.38-.635-7.051 0-2.463.217-10.5 3-10.5s3 8.037 3 10.5c0 .791-.02 1.56-.057 2.294-.028.552-.515.98-1.049.949-.552-.028-.977-.498-.949-1.049.035-.703.055-1.438.055-2.194 0-4.154-.556-6.924-1-8.058-.444 1.134-1 3.903-1 8.058 0 2.495.215 4.91.588 6.625.118.539-.224 1.072-.764 1.189-.07.017-.142.024-.213.024z"/></g><g><path d="m40.764 37.519c-1.096 0-2.273-1.148-3.126-2.099-1.269-1.414-2.685-3.436-3.987-5.691-.395-.683-.761-1.357-1.095-2.011-.252-.492-.058-1.095.434-1.346.493-.255 1.094-.059 1.346.434.32.624.671 1.27 1.048 1.923 2.077 3.599 3.943 5.72 4.896 6.479-.182-1.203-1.085-3.88-3.163-7.479-1.244-2.158-2.638-4.143-3.821-5.444-.371-.409-.341-1.041.067-1.413.408-.37 1.042-.342 1.413.067 1.294 1.425 2.741 3.48 4.073 5.79 1.231 2.133 5.063 9.2 2.651 10.593-.238.136-.485.197-.736.197z"/></g><g><path d="m28.966 19.389c-.271 0-.542-.109-.739-.326-1.288-1.413-2.735-3.469-4.076-5.789-1.874-3.246-3.883-7.71-3.374-9.604.15-.561.477-.848.724-.99 1.273-.732 2.813.733 3.86 1.902 1.269 1.414 2.685 3.436 3.987 5.691.395.684.761 1.356 1.096 2.012.251.492.056 1.095-.436 1.346-.489.251-1.095.056-1.346-.436-.319-.626-.67-1.27-1.047-1.922-2.077-3.599-3.943-5.72-4.896-6.479.182 1.204 1.086 3.881 3.163 7.479 1.252 2.167 2.646 4.151 3.822 5.441.372.408.343 1.041-.065 1.413-.191.176-.432.262-.673.262z"/></g><g><path d="m47.079 30.781c-2.651 0-7.213-2.485-8.854-3.433-.683-.394-1.337-.795-1.954-1.194-.464-.301-.597-.92-.297-1.383.3-.464.919-.596 1.383-.297.59.382 1.215.766 1.867 1.142 3.6 2.077 6.276 2.981 7.48 3.163-.759-.952-2.88-2.818-6.478-4.894-2.158-1.247-4.356-2.271-6.032-2.807-.526-.168-.816-.73-.647-1.257.168-.525.728-.815 1.257-.647 1.832.586 4.113 1.645 6.423 2.979 3.246 1.873 7.216 4.732 7.724 6.629.149.561.011.972-.132 1.219-.321.556-.944.78-1.74.78z"/></g><g><path d="m28.499 20.871c-.1 0-.202-.015-.303-.047-1.818-.577-4.1-1.634-6.425-2.976-3.247-1.875-7.219-4.736-7.724-6.629-.149-.562-.011-.973.132-1.22.141-.244.428-.57.989-.722 1.899-.514 6.358 1.5 9.604 3.373.686.396 1.343.799 1.962 1.201.464.3.596.92.295 1.383s-.92.597-1.383.295c-.592-.383-1.218-.769-1.873-1.146-3.601-2.078-6.278-2.982-7.481-3.162.759.951 2.881 2.816 6.479 4.895 2.172 1.253 4.37 2.274 6.03 2.802.526.167.817.729.65 1.256-.134.426-.527.697-.952.697z"/></g><g><path d="m40.999 23.002c-.789 0-1.558-.02-2.293-.058-.552-.029-.976-.499-.947-1.051s.51-.986 1.051-.947c.702.036 1.436.056 2.189.056 4.155 0 6.927-.557 8.06-1.002-1.134-.444-3.904-1-8.058-1-2.493 0-4.909.214-6.628.587-.537.117-1.072-.226-1.189-.766s.226-1.072.766-1.189c1.878-.407 4.382-.632 7.051-.632 3.749 0 8.617.492 10.003 1.88.41.411.496.837.495 1.122 0 2.783-8.037 3-10.5 3z"/></g><g><path d="m21.983 23c-3.746 0-8.604-.491-9.988-1.878-.41-.411-.496-.837-.495-1.122-.001-1.468 2.04-2.068 3.576-2.392 1.861-.392 4.319-.608 6.923-.608.791 0 1.561.02 2.297.058.552.028.976.499.947 1.051-.03.552-.5.979-1.051.947-.703-.036-1.437-.056-2.193-.056-4.155 0-6.926.557-8.059 1.001 1.132.444 3.897.999 8.041.999h.018c2.505 0 4.919-.215 6.624-.588.538-.117 1.072.223 1.19.763.118.539-.223 1.072-.763 1.19-1.865.409-4.37.635-7.051.635-.005 0-.011 0-.016 0z"/></g><g><path d="m38.758 19.057c-.363 0-.715-.199-.892-.545-.251-.491-.057-1.094.436-1.346.627-.32 1.272-.672 1.927-1.049 3.598-2.077 5.719-3.944 6.478-4.896-1.204.182-3.881 1.086-7.479 3.163-2.157 1.244-4.142 2.637-5.446 3.821-.407.371-1.04.342-1.412-.068-.371-.408-.341-1.041.068-1.412 1.426-1.295 3.482-2.742 5.79-4.073 3.247-1.876 7.71-3.887 9.604-3.374.561.151.848.478.989.725.734 1.271-.733 2.812-1.901 3.859-1.415 1.271-3.437 2.687-5.691 3.989-.685.394-1.359.761-2.016 1.097-.147.073-.302.109-.455.109z"/></g><g><path d="m15.9 30.806c-.736 0-1.376-.206-1.721-.804-.736-1.272.732-2.813 1.9-3.861 1.415-1.271 3.437-2.687 5.691-3.989.685-.396 1.36-.763 2.015-1.098.493-.254 1.094-.058 1.346.434s.058 1.095-.434 1.346c-.627.321-1.271.673-1.927 1.051-3.598 2.078-5.719 3.944-6.478 4.896 1.204-.182 3.882-1.086 7.478-3.164 2.168-1.251 4.151-2.644 5.442-3.821.407-.373 1.04-.344 1.412.064.373.407.344 1.04-.064 1.412-1.413 1.29-3.469 2.737-5.79 4.077-2.253 1.302-4.49 2.345-6.299 2.937-.788.258-1.741.52-2.571.52z"/></g><g><path d="m31.626 18c-.101 0-.203-.015-.305-.048-.526-.168-.816-.73-.647-1.257.586-1.833 1.644-4.114 2.978-6.424 1.874-3.246 4.734-7.217 6.63-7.724.557-.149.972-.012 1.219.132 2.412 1.393-1.419 8.461-2.65 10.594-.395.684-.797 1.339-1.197 1.956-.301.465-.92.596-1.383.295-.464-.301-.596-.92-.295-1.383.383-.59.766-1.216 1.143-1.868 2.078-3.599 2.981-6.276 3.162-7.48-.952.759-2.819 2.881-4.896 6.479-1.247 2.158-2.27 4.357-2.806 6.033-.137.424-.529.695-.953.695z"/></g><g><path d="m22.246 37.517c-.324 0-.575-.097-.746-.196-.245-.141-.571-.428-.722-.988-.51-1.896 1.498-6.359 3.372-9.605.396-.685.798-1.34 1.198-1.959.301-.464.919-.596 1.383-.297.464.3.597.919.297 1.383-.383.592-.768 1.218-1.146 1.873-2.078 3.599-2.981 6.277-3.162 7.48.952-.759 2.818-2.88 4.894-6.479 1.271-2.202 2.267-4.345 2.803-6.031.168-.525.729-.819 1.256-.65.526.167.817.729.65 1.256-.578 1.82-1.636 4.103-2.977 6.426-1.872 3.245-4.73 7.216-6.627 7.724-.171.044-.329.063-.473.063z"/></g><g><path d="m31.499 64c-.553 0-1-.447-1-1v-24c0-.553.447-1 1-1s1 .447 1 1v24c0 .553-.447 1-1 1z"/></g><g><path d="m31.499 62.063c-.553 0-1-.447-1-1 0-11.58 9.421-21.002 21.001-21.002.553 0 1 .447 1 1s-.447 1-1 1c-10.478 0-19.001 8.524-19.001 19.002 0 .552-.447 1-1 1z"/></g><g><path d="m31.499 62.063c-.553 0-1-.447-1-1s.447-1 1-1c10.478 0 19.001-8.524 19.001-19.002 0-.553.447-1 1-1s1 .447 1 1c0 11.58-9.421 21.002-21.001 21.002z"/></g></g></svg>