<svg id="icons" enable-background="new 0 0 64 64" height="512" viewBox="0 0 64 64" width="512" xmlns="http://www.w3.org/2000/svg"><g><g><path d="m32.003 50.777v7.94l-10-19.94 9.93 9h.07z" fill="#a0d468"/></g><g><path d="m46.003 38.777-14 22.94v-3-7.94h.07z" fill="#a0d468"/></g><g><path d="m35.673 19.167c2.08-1.16 4.69-1.22 6.89.05.631.36 1.341.9 2.051 1.55 3.1 2.82 6.42 7.801 4.84 10.521-1.521 2.64-7.21 2.35-11.181 1.17v-.01c-1.06-.311-1.989-.69-2.699-1.101-2.71-1.569-3.98-4.67-3.34-7.569 1.55-.12 2.77-1.42 2.77-2.99 0-.38-.07-.73-.19-1.06.269-.211.559-.401.859-.561z" fill="#ac92ec"/></g><g><path d="m42.563 19.217c-2.199-1.27-4.81-1.21-6.89-.05 2-1.229 3.33-3.439 3.33-5.96 0-1.11-.26-2.59-.73-4.11 3.971-1.189 9.66-1.479 11.181 1.16 1.569 2.721-1.74 7.7-4.84 10.51-.711-.65-1.421-1.19-2.051-1.55z" fill="#967adc"/></g><g><path d="m34.772 19.637c.311-.14.61-.29.9-.47-.3.16-.59.35-.86.561-.019-.031-.029-.061-.04-.091z"/></g><g><path d="m29.233 19.637c.449-1.09 1.52-1.85 2.77-1.85s2.32.76 2.77 1.85c.011.03.021.061.04.091.12.329.19.68.19 1.06 0 1.57-1.22 2.87-2.77 2.99-.08.01-.15.01-.23.01s-.15 0-.23-.01c-1.55-.12-2.77-1.42-2.77-2.99 0-.38.07-.73.19-1.06.02-.031.03-.061.04-.091z" fill="#ffce54"/></g><g><path d="m32.003 40.327c-2.75 0-5.12-4.1-6.27-7.87v-.01c1.06-.311 2-.69 2.699-1.101 2.71-1.569 3.98-4.67 3.34-7.569.08.01.15.01.23.01s.15 0 .23-.01c-.641 2.899.63 6 3.34 7.569.71.41 1.64.79 2.699 1.101v.01c-1.148 3.771-3.518 7.87-6.268 7.87z" fill="#967adc"/></g><g><path d="m28.333 19.167c-2-1.229-3.33-3.439-3.33-5.96 0-1.11.26-2.59.73-4.11 1.14-3.77 3.52-7.88 6.27-7.88s5.13 4.11 6.27 7.88c.471 1.521.73 3 .73 4.11 0 2.521-1.33 4.73-3.33 5.96-.29.18-.59.33-.9.47-.449-1.09-1.52-1.85-2.77-1.85s-2.32.76-2.77 1.85c-.31-.14-.61-.29-.9-.47z" fill="#ac92ec"/></g><g><path d="m28.333 19.167c.29.18.59.33.9.47-.011.03-.021.061-.04.091-.27-.211-.56-.401-.86-.561z"/></g><g><path d="m14.543 10.257c1.53-2.64 7.22-2.35 11.19-1.16-.471 1.521-.73 3-.73 4.11 0 2.521 1.33 4.73 3.33 5.96-2.08-1.16-4.69-1.22-6.89.05-.631.37-1.341.91-2.061 1.55-3.089-2.81-6.399-7.789-4.839-10.51z" fill="#967adc"/></g><g><path d="m25.733 32.457c-3.971 1.18-9.66 1.46-11.19-1.18-1.57-2.71 1.74-7.681 4.84-10.511.72-.64 1.43-1.18 2.061-1.55 2.199-1.27 4.81-1.21 6.89-.05.3.16.59.35.86.561-.12.329-.19.68-.19 1.06 0 1.57 1.22 2.87 2.77 2.99.641 2.899-.63 6-3.34 7.569-.699.41-1.64.79-2.699 1.101v.01z" fill="#ac92ec"/></g></g><g><g><path d="m32 41.328c-3.407 0-6.022-4.624-7.228-8.584-.16-.528.138-1.087.666-1.248.53-.16 1.087.138 1.248.666 1.083 3.562 3.256 7.166 5.313 7.166s4.23-3.605 5.313-7.168c.161-.528.72-.826 1.248-.666.528.161.826.72.666 1.248-1.204 3.961-3.82 8.586-7.226 8.586z"/></g><g><path d="m19.393 21.777c-.24 0-.48-.086-.672-.26-3.12-2.832-7.037-8.3-5.042-11.756 2.069-3.587 8.977-2.633 12.341-1.624.528.158.829.716.671 1.245-.158.527-.716.827-1.245.671-3.946-1.182-8.906-1.247-10.034.708-1.145 1.982 1.482 6.396 4.653 9.275.409.371.439 1.004.068 1.412-.197.219-.469.329-.74.329z"/></g><g><path d="m44.612 21.773c-.271 0-.543-.11-.74-.327-.371-.409-.341-1.042.067-1.413 3.168-2.878 5.792-7.289 4.648-9.27-1.128-1.954-6.085-1.891-10.031-.71-.53.156-1.086-.143-1.244-.672s.143-1.086.672-1.244c3.361-1.004 10.267-1.959 12.336 1.626 1.993 3.453-1.919 8.919-5.035 11.75-.192.175-.432.26-.673.26z"/></g><g><path d="m31.999 24.785c-2.206 0-4-1.794-4-4s1.794-4 4-4 4 1.794 4 4-1.794 4-4 4zm0-6c-1.103 0-2 .897-2 2s.897 2 2 2 2-.897 2-2-.897-2-2-2z"/></g><g><path d="m34.773 20.641c-.388 0-.756-.226-.919-.604-.219-.507.015-1.096.521-1.314 2.199-.951 3.621-3.112 3.621-5.508 0-3.846-3.083-10.998-5.998-10.998s-5.998 7.152-5.998 10.998c0 2.396 1.422 4.557 3.621 5.508.507.219.74.808.521 1.314s-.807.741-1.314.521c-2.933-1.268-4.828-4.15-4.828-7.344 0-3.858 3.104-12.998 7.998-12.998s7.998 9.14 7.998 12.998c0 3.193-1.896 6.076-4.828 7.344-.128.056-.263.083-.395.083z"/></g><g><path d="m44.018 34.323c-.335 0-.68-.01-1.035-.03-2.864-.165-6.046-1.001-7.917-2.081-3.037-1.753-4.568-5.23-3.812-8.652.12-.539.655-.876 1.192-.761.539.119.88.653.761 1.192-.567 2.566.581 5.174 2.858 6.488 1.6.924 4.491 1.671 7.032 1.816 2.806.167 4.852-.404 5.49-1.511 1.458-2.525-3.193-8.771-6.524-10.694-2.105-1.217-4.716-1.046-6.649.434-.437.336-1.066.253-1.401-.187-.336-.438-.252-1.066.187-1.401 2.578-1.972 6.057-2.198 8.864-.578 1.871 1.08 4.186 3.418 5.761 5.817 2.021 3.079 2.552 5.781 1.496 7.609-.955 1.653-3.174 2.539-6.303 2.539z"/></g><g><path d="m19.942 34.341c-2.705 0-5.177-.675-6.264-2.558-1.056-1.828-.524-4.53 1.496-7.608 1.575-2.398 3.89-4.736 5.761-5.816 2.805-1.619 6.283-1.395 8.861.575.438.336.522.964.188 1.402-.336.44-.962.521-1.402.188-1.935-1.479-4.542-1.648-6.646-.433-1.6.923-3.691 3.054-5.088 5.182-1.539 2.344-2.076 4.403-1.437 5.511s2.696 1.68 5.49 1.512c2.541-.146 5.433-.892 7.032-1.815 2.277-1.314 3.427-3.922 2.86-6.488-.119-.539.222-1.073.761-1.192.535-.116 1.072.221 1.192.761.756 3.422-.776 6.899-3.813 8.652-1.856 1.07-5.606 2.127-8.991 2.127z"/></g><g><path d="m32 63.783c-.553 0-1-.447-1-1v-22.455c0-.553.447-1 1-1s1 .447 1 1v22.455c0 .553-.447 1-1 1z"/></g><g><path d="m31.999 62.721c-.178 0-.357-.047-.52-.146-.472-.287-.621-.903-.333-1.374l14-22.945c.288-.474.905-.621 1.374-.333.472.287.621.903.333 1.374l-14 22.945c-.188.309-.517.479-.854.479z"/></g><g><path d="m32.066 51.779c-.28 0-.56-.118-.758-.348-.36-.418-.313-1.05.105-1.41l13.934-12.004c.416-.358 1.048-.313 1.41.105.36.418.313 1.05-.105 1.41l-13.933 12.005c-.189.162-.421.242-.653.242z"/></g><g><path d="m32 59.717c-.366 0-.72-.202-.895-.552l-9.996-19.941c-.248-.494-.048-1.095.445-1.342s1.096-.047 1.342.445l9.996 19.941c.248.494.048 1.095-.445 1.342-.143.073-.297.107-.447.107z"/></g><g><path d="m31.933 48.777c-.24 0-.48-.086-.672-.259l-9.93-9.002c-.409-.371-.439-1.004-.069-1.413.371-.41 1.004-.438 1.413-.069l9.93 9.002c.409.371.439 1.004.069 1.413-.197.218-.469.328-.741.328z"/></g></g></svg>